<?xml version="1.0" encoding="UTF-8"?>
<svg id="Layer_1" data-name="Layer 1" xmlns="http://www.w3.org/2000/svg" version="1.1" viewBox="0 0 512 512">
  <defs>
    <style>
      .cls-1 {
        fill: #007435;
      }

      .cls-1, .cls-2 {
        stroke-width: 0px;
      }

      .cls-2 {
        fill: #fff;
      }
    </style>
  </defs>
  <circle class="cls-1" cx="256" cy="256" r="256"/>
  <path class="cls-2" d="M256.5,87.1c76.4,0,142.4,51.3,162.4,123.4l17.9-38.4c.7-1.6,2.1-2.9,3.8-3.5h0c1.7-.6,3.5-.5,5.1.3,3.3,1.5,4.8,5.5,3.3,8.8,0,0,0,0,0,0l-26.4,56.6c-1.6,3.3-5.5,4.7-8.9,3.2-.2,0-.4-.2-.6-.3l-53.3-32.6c-3.1-1.9-4.1-6-2.2-9.1,1.9-3.1,6-4.1,9.1-2.2l40.4,24.7c-17.1-68.5-78.8-117.5-150.6-117.5s-141.4,55.6-153.3,131c-.6,3.6-4,6.1-7.6,5.5,0,0,0,0,0,0-3.6-.6-6.1-3.9-5.6-7.6,0,0,0,0,0,0,12.9-81.9,83.6-142.3,166.5-142.3h0ZM257.3,149.8c1.1.1,2.1.6,2.9,1.3,0,0,57.9,45.4,57.9,104.5,0,59.2-57.9,104.5-57.9,104.5-.4.3-.9.6-1.4.8,0,0-.1,0-.2,0-.4.2-.8.3-1.3.3-.1,0-.3,0-.4,0-.2,0-.4,0-.6,0-.3,0-.5,0-.8,0h0c-.5,0-1-.2-1.5-.4,0,0,0,0,0,0-.4-.2-.9-.4-1.2-.7,0,0,0,0-.1,0,0,0-57.9-45.4-57.9-104.5,0-59.2,57.9-104.5,57.9-104.5,1.3-1,2.9-1.5,4.6-1.3h0ZM256.5,164.4c-6.5,5.6-49.7,43.6-49.7,91.2,0,39.7,30,72.7,43.7,85.8v-67.4l-20.6-21c-2.3-2.3-2.3-6.1,0-8.4,0,0,0,0,0,0,1.1-1.1,2.7-1.7,4.2-1.7,1.6,0,3.1.6,4.2,1.8l12.1,12.3v-44.1c0-3.3,2.7-6,6-6h0c3.3,0,6,2.7,6,5.9,0,0,0,0,0,0v72.3l12.1-12.3c1.1-1.1,2.6-1.8,4.2-1.8,1.6,0,3.1.6,4.2,1.7,2.3,2.3,2.4,6.1,0,8.4l-20.6,21v39.1c13.8-13.1,43.7-46.1,43.7-85.7,0-47.6-43.3-85.6-49.7-91.2h0ZM96.9,273.1c1.1,0,2.2.4,3.2,1l53.3,32.6c3.1,1.9,4.1,6,2.2,9.1-1.9,3.1-6,4.1-9.1,2.2,0,0,0,0,0,0l-40.4-24.7c17.1,68.5,78.8,117.5,150.5,117.5s141.4-55.6,153.3-131c.6-3.6,4-6.1,7.6-5.5,3.6.6,6.1,3.9,5.5,7.6-12.9,81.9-83.6,142.3-166.5,142.3s-142.3-51.3-162.4-123.3l-17.9,38.4c-1.6,3.3-5.5,4.7-8.8,3.2-3.3-1.5-4.8-5.5-3.2-8.8,0,0,0,0,0,0l26.4-56.6c.8-1.7,2.3-3,4.1-3.5.7-.2,1.5-.3,2.2-.3h0Z"/>
</svg>